<?xml version="1.0" encoding="UTF-8" standalone="no"?>
<!-- Created with Inkscape (http://www.inkscape.org/) -->

<svg
   xmlns:dc="http://purl.org/dc/elements/1.1/"
   xmlns:cc="http://creativecommons.org/ns#"
   xmlns:rdf="http://www.w3.org/1999/02/22-rdf-syntax-ns#"
   xmlns:svg="http://www.w3.org/2000/svg"
   xmlns="http://www.w3.org/2000/svg"
   xmlns:sodipodi="http://sodipodi.sourceforge.net/DTD/sodipodi-0.dtd"
   xmlns:inkscape="http://www.inkscape.org/namespaces/inkscape"
   id="svg3390"
   version="1.1"
   inkscape:version="0.91 r13725"
   width="265.91214"
   height="148.53804"
   viewBox="0 0 1029.1197 457.69175"
   sodipodi:docname="malenovska_logo.svg">
  <metadata
     id="metadata3396">
    <rdf:RDF>
      <cc:Work
         rdf:about="">
        <dc:format>image/svg+xml</dc:format>
        <dc:type
           rdf:resource="http://purl.org/dc/dcmitype/StillImage" />
        <dc:title></dc:title>
      </cc:Work>
    </rdf:RDF>
  </metadata>
  <defs
     id="defs3394" />
  <sodipodi:namedview
     pagecolor="#000000"
     bordercolor="#000000"
     borderopacity="1"
     objecttolerance="10"
     gridtolerance="10"
     guidetolerance="10"
     inkscape:pageopacity="1"
     inkscape:pageshadow="2"
     inkscape:window-width="1920"
     inkscape:window-height="1080"
     id="namedview3392"
     showgrid="false"
     fit-margin-top="0"
     fit-margin-left="0"
     fit-margin-right="0"
     fit-margin-bottom="0"
     inkscape:zoom="1.4"
     inkscape:cx="-34.103053"
     inkscape:cy="86.655867"
     inkscape:window-x="0"
     inkscape:window-y="0"
     inkscape:window-maximized="1"
     inkscape:current-layer="svg3390"
     showborder="false" />
  <path
     style="fill:#ffffff;fill-opacity:1;stroke:#ffffff;stroke-width:1.77516997;stroke-opacity:1"
     d="m 1025.2096,118.93414 c -22.3707,21.139 -11.1675,97.78883 -38.27524,92.22672 -2.4315,-34.55184 13.27334,-91.58081 40.52014,-102.25299 1.6131,3.34638 0.6346,8.144 -2.2449,10.02627 z"
     id="path4344"
     inkscape:connector-curvature="0" />
  <path
     style="fill:#ffffff;fill-opacity:1;stroke:#ffffff;stroke-width:1.77516997;stroke-opacity:1"
     d="m 959.71906,269.76012 c -2.2704,0.0597 -4.7926,0.29728 -7.6009,0.73027 -39.8909,5.47908 -39.2755,99.73032 6.008,73.52588 13.4506,-7.31454 14.5637,-12.85349 19.4497,-13.66225 4.4009,-1.17266 11.3657,16.96689 27.56574,23.0988 l 2.9582,-2.20225 C 971.19436,308.6899 993.77626,268.86394 959.71906,269.76012 Z m -2.4589,14.09585 c 3.3844,-0.17156 7.4946,1.2843 12.3987,4.98642 9.1084,5.58784 7.6013,18.34577 1.2641,25.92099 -25.3973,51.25582 -37.3529,-29.70672 -13.6628,-30.90741 z"
     id="path4342"
     inkscape:connector-curvature="0" />
  <path
     style="fill:#ffffff;fill-opacity:1;stroke:#ffffff;stroke-width:1.61861968;stroke-opacity:1"
     d="m 854.92646,157.9494 c 1.4092,45.96952 -0.9122,92.28323 3.3764,138.16434 l 3.2373,43.39291 c 0.8998,6.06611 3.8066,12.77997 8.9497,1.02112 8.926,-45.16277 22.4811,10.97747 43.2412,8.63053 -3.5943,-18.77492 -34.5425,-33.55994 -11.3714,-59.42421 6.0513,-40.57054 -38.682,10.10305 -39.5203,-30.0962 -0.6848,-32.84275 4.2182,-94.46562 -7.9129,-101.68849 z m 32.8024,122.34486 c 0.838,-0.0267 1.7068,0.006 2.6112,0.10116 8.368,4.27928 -3.3186,13.79345 -5.1276,18.592 -17.8402,38.9566 -23.4615,-17.86705 2.5164,-18.69316 z"
     id="path4338"
     inkscape:connector-curvature="0" />
  <path
     style="fill:#ffffff;fill-opacity:1;stroke:#ffffff;stroke-width:1.77516997;stroke-opacity:1"
     d="m 841.55316,350.14405 c -23.7069,34.58147 -83.6867,-18.09822 -44.9341,-28.57477 -13.88,50.90069 66.924,18.0375 19.8695,-5.86121 -33.9999,-30.52302 -6.9211,-34.54898 -2.5093,-34.63689 32.6148,4.76368 7.6618,11.30913 -4.2776,16.32722 9.4207,2.77919 30.3585,12.36948 35.1857,19.86165 5.8689,9.10896 8.8014,15.18166 -3.3342,32.884 z"
     id="path4336"
     inkscape:connector-curvature="0" />
  <path
     style="fill:#ffffff;fill-opacity:1;stroke:#ffffff;stroke-width:1.77516997;stroke-opacity:1"
     d="m 780.55486,298.35807 c -13.7385,23.92372 -35.98738,65.47023 -48.57431,13.9962 -14.03732,-14.01487 -19.09477,-56.5686 1.46968,-21.50721 10.12971,26.10895 20.79551,44.53629 33.95013,6.8162 6.2655,-11.75195 23.3804,-27.97862 13.1545,0.69481 z"
     id="path4330"
     inkscape:connector-curvature="0" />
  <path
     style="fill:#ffffff;fill-opacity:1;stroke:#ffffff;stroke-width:1.77516997;stroke-opacity:1"
     d="m 675.59415,276.33484 c -1.31006,0.01 -2.62289,0.12172 -3.92847,0.34613 -53.26823,19.52804 7.40192,110.48506 34.04475,47.24353 8.76767,-24.34938 -10.4653,-47.72208 -30.11628,-47.58966 z m 6.24829,15.37004 c 3.72215,0.0223 8.53159,2.92517 14.49398,10.26191 l 2.91712,7.356 -2.81913,9.11706 c -25.21785,39.93511 -32.52598,-26.84282 -14.59197,-26.73497 z"
     id="path4328"
     inkscape:connector-curvature="0" />
  <path
     style="fill:#ffffff;fill-opacity:1;stroke:#ffffff;stroke-width:1.77516997;stroke-opacity:1"
     d="m 633.62744,326.98942 c -7.90783,17.09726 -30.65675,84.38964 -41.71988,64.24037 11.78484,-28.51717 55.67023,-89.57254 14.48667,-105.91242 -34.79351,-10.62282 -12.92322,58.62875 -32.65766,47.25315 -1.12764,-13.78553 -11.89557,-98.52021 6.58508,-56.79807 29.50043,-18.33185 66.38338,7.70523 53.30579,51.21697 z"
     id="path4324"
     inkscape:connector-curvature="0" />
  <path
     style="fill:#ffffff;fill-opacity:1;stroke:#ffffff;stroke-width:1.77516997;stroke-opacity:1"
     d="m 522.94249,255.73422 c -9.82759,-0.23369 -19.64146,5.04693 -24.10501,19.36372 -25.79842,49.22331 33.65264,106.87635 58.64914,47.88635 3.23717,-39.24333 -19.88915,19.81484 -31.87983,15.16843 -30.15281,-7.52632 -16.36778,-29.7544 5.58774,-38.38515 35.05756,-16.32485 13.36868,-43.5193 -8.25204,-44.03335 z m 6.11239,12.5554 c 12.51391,0.1235 -3.98424,14.8976 -9.95238,20.06739 -23.74072,40.11278 -19.5762,-11.94517 5.09472,-19.60715 1.95925,-0.32766 3.56313,-0.47299 4.85766,-0.46024 z"
     id="path4322"
     inkscape:connector-curvature="0" />
  <path
     style="fill:#ffffff;fill-opacity:1;stroke:#ffffff;stroke-width:1.61861968;stroke-opacity:1"
     d="m 478.55244,324.16139 c 2.18905,29.80845 -18.12937,29.79787 -12.14813,2.92468 -0.4223,-52.77595 -3.03106,-106.43495 -12.57195,-157.90847 23.56393,15.16248 15.54499,58.43206 20.04405,86.14264 1.02804,22.43428 6.02714,46.40098 4.67603,68.84115 z"
     id="path4318"
     inkscape:connector-curvature="0" />
  <path
     style="fill:#ffffff;fill-opacity:1;stroke:#ffffff;stroke-width:1.77516997;stroke-opacity:1"
     d="m 408.40219,256.87798 c -3.06029,0.0516 -6.42985,0.85908 -10.14199,2.55978 -47.33831,8.35624 -32.83139,118.20547 15.3094,72.64726 16.89993,-29.2321 13.27382,1.4133 28.02719,11.8632 9.99959,-1.35482 -1.39164,-13.69189 -2.4873,-23.62369 -2.98935,-27.09766 -9.28515,-63.8076 -30.7073,-63.44655 z m 0.30341,14.21757 c 3.15736,-0.0204 6.66256,1.24842 10.47702,4.20671 10.48397,15.11462 0.89952,37.97327 -11.15018,47.1066 -26.41243,12.06553 -21.42825,-51.17058 0.67316,-51.31331 z"
     id="path4316"
     inkscape:connector-curvature="0" />
  <path
     style="fill:#ffffff;fill-opacity:1;stroke:#ffffff;stroke-width:1.61861968;stroke-opacity:1"
     d="m 346.20433,482.6272 c -0.65262,15.96601 -8.64994,54.95866 -14.62186,16.2263 -6.18202,-36.79483 -42.346,-50.59608 -75.51496,-51.94013 -41.24568,-5.47365 -79.72059,12.30237 -119.75214,17.12272 -39.759914,-1.67738 -92.213804,-0.75101 -113.566804,-41.2457 -16.5060303,-34.76303 -8.01561,-79.15071 27.99045,-97.76074 30.88482,-13.69776 32.1109,-10.31486 12.58619,11.29656 -24.37251,21.96802 -6.41399,61.92178 23.61635,69.03248 22.553044,3.42533 47.065524,-1.5849 70.028914,-3.75255 42.28304,-10.01244 83.06922,-44.38558 128.38593,-26.25735 35.86524,12.63087 45.87814,52.2479 54.90432,84.46734 2.75085,3.5206 7.53715,7.80657 5.94361,22.81107 z"
     id="path4312"
     inkscape:connector-curvature="0" />
  <path
     style="fill:#ffffff;fill-opacity:1;stroke:#ffffff;stroke-width:1.61861968;stroke-opacity:1"
     d="m 346.01449,330.96353 c -10.79671,41.4791 -8.61181,-20.04876 -15.15516,-35.30757 0.57185,-18.4668 -6.88847,-64.70095 -11.98428,-20.18052 -13.98606,49.00327 0,0 -35.66867,-36.65599 -3.33942,3.71481 -0.70281,41.52594 -7.28563,60.0375 -3.82402,10.75352 -11.35359,44.3385 -22.08177,51.04138 -16.86137,10.53484 -10.40329,4.43023 -3.60492,-13.30312 27.16473,-37.80783 29.36269,-98.37204 4.88227,-137.75546 -10.40808,-25.21329 -46.35625,-33.20972 -51.22476,-50.67966 33.9442,10.73347 73.92915,37.2598 92.81741,69.60273 8.82954,13.72966 11.74921,54.01245 17.11002,14.87205 -4.57909,-18.23301 9.64644,-55.86499 18.63907,-19.79918 11.91721,31.08472 15.72422,76.64791 13.55642,118.12784 z"
     id="path4310"
     inkscape:connector-curvature="0" />
  <path
     style="fill:#ffffff;fill-opacity:1;stroke:#ffffff;stroke-width:1.61861968;stroke-opacity:1"
     d="m 241.02302,288.93314 c -8.27784,47.43266 -50.49212,72.57555 -94.78998,78.41 -25.90319,2.93894 -10.35582,-5.01161 0.40538,-10.61357 30.39266,-12.90141 55.72302,-38.78944 63.78981,-72.86862 9.61583,-74.93482 -33.89703,-107.34736 -68.19091,-127.70338 -11.56959,-15.15239 -10.46967,-12.67351 12.52428,-8.18542 46.71042,24.54772 90.32416,68.66871 87.86745,125.02388 l -0.41304,8.49293 z"
     id="path4308"
     inkscape:connector-curvature="0" />
  <path
     style="fill:#ffffff;fill-opacity:1;stroke:#ffffff;stroke-width:1.61861968;stroke-opacity:1"
     d="m 131.4998,7.7461969 c 8.73275,-14.9567896 15.90775,-22.4560799 23.26119,-28.3624899 9.69105,-7.784047 15.67531,-13.419296 2.7118,16.9661903 -2.39583,6.12488 -3.81072,9.6566496 -3.86003,12.2830396 -7.60567,0.26772 -15.29613,0.69134 -22.11296,-0.88674 z"
     id="path4306"
     inkscape:connector-curvature="0" />
  <path
     style="fill:#ffffff;fill-opacity:1;stroke:#ffffff;stroke-width:1.61861968;stroke-opacity:1"
     d="m 123.87478,15.864427 c -12.32463,4.17568 -50.212724,47.18726 -44.214884,81.98371 0.74968,4.349223 -0.0171,6.838443 5.12142,1.94741 11.80402,-11.23541 22.794294,-31.05527 59.686604,-25.23087 26.92963,4.25154 61.18644,45.298053 94.234,22.3066 -3.93251,-18.23438 -18.41539,-1.29444 -35.07537,-42.63735 -18.75854,-34.30043 -46.42343,-30.19227 -52.91493,-37.5191 -8.8897,-0.0862 -17.6659,0.47614 -26.83684,-0.8504 z m 24.41207,25.03486 c 3.45715,-0.32025 8.80956,2.62701 15.07971,12.33881 -21.12155,4.88694 -22.68545,-11.63426 -15.07971,-12.33881 z"
     id="path4304"
     inkscape:connector-curvature="0" />
  <path
     style="fill:#ffffff;fill-opacity:1;stroke:#ffffff;stroke-width:1.61861968;stroke-opacity:1"
     d="m 181.954,107.57208 c -23.77074,-6.12552 -88.329404,-1.32386 -56.84746,33.43341 -25.539354,23.37973 -61.099274,-37.49845 -0.26091,-54.406483 18.34056,5.63588 58.00048,8.81048 57.10837,20.973073 z"
     id="path4300"
     inkscape:connector-curvature="0" />
  <path
     style="fill:#ffffff;fill-opacity:1;stroke:#ffffff;stroke-width:1.61861968;stroke-opacity:1"
     d="m 128.58201,-26.619552 c -6.09311,12.859579 -6.94916,10.889599 -14.57237,23.1009793 C 95.886906,10.357997 73.874956,30.560467 70.717836,56.941177 c -1.71635,7.21833 -6.90103,20.19341 -4.91612,28.74322 6.39737,27.556153 -1.67008,16.274473 -6.39613,6.36858 -2.93718,-6.53939 -3.54229,-10.8296 -4.88442,-17.50213 -5.17421,-44.50231 5.62664,-57.88673 44.56209,-94.07404 14.099234,-10.533437 30.808044,-22.924599 33.693954,-31.569011 1.74858,-5.237669 4.40542,-12.946052 4.41038,2.153179 -0.94813,11.68302 -4.57861,13.181999 -8.60558,22.319473 z"
     id="path4298"
     inkscape:connector-curvature="0" />
  <path
     style="fill:#ffffff;fill-opacity:1;stroke:#ffffff;stroke-width:1.61861968;stroke-opacity:1"
     d="M 41.999706,277.38637 C 1.6622257,263.2678 -5.4098343,212.9592 5.2843357,176.55522 c 2.41036,-8.20511 12.6438203,-21.2383 19.9551503,-28.55303 14.66291,-14.66972 11.84935,-10.74313 4.87862,12.33489 -16.46078,35.82859 -16.5051,89.36857 27.26386,106.78226 13.90611,7.82498 48.730194,20.30952 45.861014,31.68414 -21.570584,-9.59587 -22.016094,-6.73616 -61.243274,-21.41711 z"
     id="path4296"
     inkscape:connector-curvature="0" />
  <path
     style="fill:#ffffff;fill-opacity:1;stroke:#ffffff;stroke-width:1.61861968;stroke-opacity:1"
     d="m 103.93652,270.71302 c -33.395684,-4.66438 -70.717464,-34.49217 -68.736774,-72.45503 -0.0473,-13.10594 6.63192,-47.84089 17.19363,-66.49544 10.81256,-19.0976 4.49449,-2.98459 4.00669,5.86912 -2.11993,38.47737 -14.40403,77.03389 29.1129,110.23375 21.066424,18.64814 28.524014,24.7875 18.423554,22.8476 z"
     id="path3400"
     inkscape:connector-curvature="0" />
</svg>
