<?xml version="1.0" encoding="UTF-8" standalone="no"?>
<!-- Created with Inkscape (http://www.inkscape.org/) -->

<svg
   xmlns:dc="http://purl.org/dc/elements/1.1/"
   xmlns:cc="http://creativecommons.org/ns#"
   xmlns:rdf="http://www.w3.org/1999/02/22-rdf-syntax-ns#"
   xmlns:svg="http://www.w3.org/2000/svg"
   xmlns="http://www.w3.org/2000/svg"
   xmlns:sodipodi="http://sodipodi.sourceforge.net/DTD/sodipodi-0.dtd"
   xmlns:inkscape="http://www.inkscape.org/namespaces/inkscape"
   id="svg3390"
   version="1.1"
   inkscape:version="0.91 r13725"
   width="79.5"
   height="46.5"
   viewBox="0 0 1029.1197 457.69175"
   sodipodi:docname="malenovska_logo.svg">
  <metadata
     id="metadata3396">
    <rdf:RDF>
      <cc:Work
         rdf:about="">
        <dc:format>image/svg+xml</dc:format>
        <dc:type
           rdf:resource="http://purl.org/dc/dcmitype/StillImage" />
        <dc:title />
      </cc:Work>
    </rdf:RDF>
  </metadata>
  <defs
     id="defs3394" />
  <sodipodi:namedview
     pagecolor="#000000"
     bordercolor="#000000"
     borderopacity="1"
     objecttolerance="10"
     gridtolerance="10"
     guidetolerance="10"
     inkscape:pageopacity="1"
     inkscape:pageshadow="2"
     inkscape:window-width="1920"
     inkscape:window-height="1080"
     id="namedview3392"
     showgrid="false"
     fit-margin-top="0"
     fit-margin-left="0"
     fit-margin-right="0"
     fit-margin-bottom="0"
     inkscape:zoom="3.959798"
     inkscape:cx="147.9368"
     inkscape:cy="9.5416047"
     inkscape:window-x="0"
     inkscape:window-y="0"
     inkscape:window-maximized="1"
     inkscape:current-layer="svg3390"
     showborder="false" />
  <path
     style="fill:#ffffff;fill-opacity:1;stroke:none;stroke-width:1.77516997;stroke-opacity:1"
     d="m 1025.2096,118.93414 c -22.3707,21.139 -11.1675,97.78883 -38.27524,92.22672 -2.4315,-34.55184 13.27334,-91.58081 40.52014,-102.25299 1.6131,3.34638 0.6346,8.144 -2.2449,10.02627 z"
     id="path4344"
     inkscape:connector-curvature="0" />
  <path
     style="fill:#ffffff;fill-opacity:1;stroke:none;stroke-width:1.77516997;stroke-opacity:1"
     d="m 959.71906,269.76012 c -2.2704,0.0597 -4.7926,0.29728 -7.6009,0.73027 -39.8909,5.47908 -39.2755,99.73032 6.008,73.52588 13.4506,-7.31454 14.5637,-12.85349 19.4497,-13.66225 4.4009,-1.17266 11.3657,16.96689 27.56574,23.0988 l 2.9582,-2.20225 C 971.19436,308.6899 993.77626,268.86394 959.71906,269.76012 Z m -2.4589,14.09585 c 3.3844,-0.17156 7.4946,1.2843 12.3987,4.98642 9.1084,5.58784 7.6013,18.34577 1.2641,25.92099 -25.3973,51.25582 -37.3529,-29.70672 -13.6628,-30.90741 z"
     id="path4342"
     inkscape:connector-curvature="0" />
  <path
     style="fill:#ffffff;fill-opacity:1;stroke:none;stroke-width:1.61861968;stroke-opacity:1"
     d="m 854.92646,157.9494 c 1.4092,45.96952 -0.9122,92.28323 3.3764,138.16434 l 3.2373,43.39291 c 0.8998,6.06611 3.8066,12.77997 8.9497,1.02112 8.926,-45.16277 22.4811,10.97747 43.2412,8.63053 -3.5943,-18.77492 -34.5425,-33.55994 -11.3714,-59.42421 6.0513,-40.57054 -38.682,10.10305 -39.5203,-30.0962 -0.6848,-32.84275 4.2182,-94.46562 -7.9129,-101.68849 z m 32.8024,122.34486 c 0.838,-0.0267 1.7068,0.006 2.6112,0.10116 8.368,4.27928 -3.3186,13.79345 -5.1276,18.592 -17.8402,38.9566 -23.4615,-17.86705 2.5164,-18.69316 z"
     id="path4338"
     inkscape:connector-curvature="0" />
  <path
     style="fill:#ffffff;fill-opacity:1;stroke:none;stroke-width:1.77516997;stroke-opacity:1"
     d="m 841.55316,350.14405 c -23.7069,34.58147 -83.6867,-18.09822 -44.9341,-28.57477 -13.88,50.90069 66.924,18.0375 19.8695,-5.86121 -33.9999,-30.52302 -6.9211,-34.54898 -2.5093,-34.63689 32.6148,4.76368 7.6618,11.30913 -4.2776,16.32722 9.4207,2.77919 30.3585,12.36948 35.1857,19.86165 5.8689,9.10896 8.8014,15.18166 -3.3342,32.884 z"
     id="path4336"
     inkscape:connector-curvature="0" />
  <path
     style="fill:#ffffff;fill-opacity:1;stroke:none;stroke-width:1.77516997;stroke-opacity:1"
     d="m 780.55486,298.35807 c -13.7385,23.92372 -35.98738,65.47023 -48.57431,13.9962 -14.03732,-14.01487 -19.09477,-56.5686 1.46968,-21.50721 10.12971,26.10895 20.79551,44.53629 33.95013,6.8162 6.2655,-11.75195 23.3804,-27.97862 13.1545,0.69481 z"
     id="path4330"
     inkscape:connector-curvature="0" />
  <path
     style="fill:#ffffff;fill-opacity:1;stroke:none;stroke-width:1.77516997;stroke-opacity:1"
     d="m 675.59415,276.33484 c -1.31006,0.01 -2.62289,0.12172 -3.92847,0.34613 -53.26823,19.52804 7.40192,110.48506 34.04475,47.24353 8.76767,-24.34938 -10.4653,-47.72208 -30.11628,-47.58966 z m 6.24829,15.37004 c 3.72215,0.0223 8.53159,2.92517 14.49398,10.26191 l 2.91712,7.356 -2.81913,9.11706 c -25.21785,39.93511 -32.52598,-26.84282 -14.59197,-26.73497 z"
     id="path4328"
     inkscape:connector-curvature="0" />
  <path
     style="fill:#ffffff;fill-opacity:1;stroke:none;stroke-width:1.77516997;stroke-opacity:1"
     d="m 633.62744,326.98942 c -7.90783,17.09726 -30.65675,84.38964 -41.71988,64.24037 11.78484,-28.51717 55.67023,-89.57254 14.48667,-105.91242 -34.79351,-10.62282 -12.92322,58.62875 -32.65766,47.25315 -1.12764,-13.78553 -11.89557,-98.52021 6.58508,-56.79807 29.50043,-18.33185 66.38338,7.70523 53.30579,51.21697 z"
     id="path4324"
     inkscape:connector-curvature="0" />
  <path
     style="fill:#ffffff;fill-opacity:1;stroke:none;stroke-width:1.77516997;stroke-opacity:1"
     d="m 522.94249,255.73422 c -9.82759,-0.23369 -19.64146,5.04693 -24.10501,19.36372 -25.79842,49.22331 33.65264,106.87635 58.64914,47.88635 3.23717,-39.24333 -19.88915,19.81484 -31.87983,15.16843 -30.15281,-7.52632 -16.36778,-29.7544 5.58774,-38.38515 35.05756,-16.32485 13.36868,-43.5193 -8.25204,-44.03335 z m 6.11239,12.5554 c 12.51391,0.1235 -3.98424,14.8976 -9.95238,20.06739 -23.74072,40.11278 -19.5762,-11.94517 5.09472,-19.60715 1.95925,-0.32766 3.56313,-0.47299 4.85766,-0.46024 z"
     id="path4322"
     inkscape:connector-curvature="0" />
  <path
     style="fill:#ffffff;fill-opacity:1;stroke:none;stroke-width:1.61861968;stroke-opacity:1"
     d="m 478.55244,324.16139 c 2.18905,29.80845 -18.12937,29.79787 -12.14813,2.92468 -0.4223,-52.77595 -3.03106,-106.43495 -12.57195,-157.90847 23.56393,15.16248 15.54499,58.43206 20.04405,86.14264 1.02804,22.43428 6.02714,46.40098 4.67603,68.84115 z"
     id="path4318"
     inkscape:connector-curvature="0" />
  <path
     style="fill:#ffffff;fill-opacity:1;stroke:none;stroke-width:1.77516997;stroke-opacity:1"
     d="m 408.40219,256.87798 c -3.06029,0.0516 -6.42985,0.85908 -10.14199,2.55978 -47.33831,8.35624 -32.83139,118.20547 15.3094,72.64726 16.89993,-29.2321 13.27382,1.4133 28.02719,11.8632 9.99959,-1.35482 -1.39164,-13.69189 -2.4873,-23.62369 -2.98935,-27.09766 -9.28515,-63.8076 -30.7073,-63.44655 z m 0.30341,14.21757 c 3.15736,-0.0204 6.66256,1.24842 10.47702,4.20671 10.48397,15.11462 0.89952,37.97327 -11.15018,47.1066 -26.41243,12.06553 -21.42825,-51.17058 0.67316,-51.31331 z"
     id="path4316"
     inkscape:connector-curvature="0" />
  <path
     style="fill:#ffffff;fill-opacity:1;stroke:none;stroke-width:1.61861968;stroke-opacity:1"
     d="m 342.74884,499.21355 c -5.54739,14.98552 -7.84228,18.41469 -11.16637,-0.36005 -9.94569,-56.1742 -44.82375,-58.99148 -72.0942,-61.22505 -33.74429,-2.7638 -64.61657,16.61677 -123.1729,26.40764 -101.658084,16.99766 -162.424496,-78.9407 -85.576354,-139.00644 26.619545,-20.80626 28.119495,-13.34049 12.58619,11.29656 -44.381314,70.39227 53.072034,84.30097 93.645264,65.27993 117.65505,-55.15757 241.1484,-51.96712 185.77837,97.60741 z"
     id="path4312"
     inkscape:connector-curvature="0"
     sodipodi:nodetypes="ssssssss" />
  <path
     style="fill:#ffffff;fill-opacity:1;stroke:none;stroke-width:1.61861968;stroke-opacity:1"
     d="m 346.01449,330.96353 c -12.49255,82.1938 -8.76574,-150.66903 -27.13944,-55.48809 -13.98606,49.00327 0,0 -35.66867,-36.65599 -2.85441,26.06958 -12.59464,93.19731 -29.3674,111.07888 -16.86137,10.53484 -10.40329,4.43023 -3.60492,-13.30312 41.79716,-118.1176 -4.89607,-150.92971 -44.96029,-183.94298 33.9442,10.73347 72.54695,32.76766 91.43521,65.11059 8.83006,13.72962 16.5447,51.64261 20.28644,15.11639 3.27707,-31.99011 0.0136,-68.72714 15.46265,-20.04352 10.06951,31.73145 15.72422,76.64791 13.55642,118.12784 z"
     id="path4310"
     inkscape:connector-curvature="0"
     sodipodi:nodetypes="cccccccssc" />
  <path
     style="fill:#ffffff;fill-opacity:1;stroke:none;stroke-width:1.61861968;stroke-opacity:1"
     d="m 146.23304,367.34314 c -24.06032,10.03561 -9.89108,-4.1973 0.40538,-10.61357 94.19001,-58.69481 86.24638,-139.46132 -4.4011,-200.572 -15.07446,-11.67095 -11.43963,-15.57451 9.5922,-5.25334 119.11887,58.45644 123.33187,162.66261 -5.59648,216.43891 z"
     id="path4308"
     inkscape:connector-curvature="0"
     sodipodi:nodetypes="sscss" />
  <path
     style="fill:#ffffff;fill-opacity:1;stroke:none;stroke-width:1.61861968;stroke-opacity:1"
     d="m 141.08879,-5.902991 c 6.62134,-18.835648 20.27959,-32.677142 27.235,-36.137343 12.53928,-6.238082 18.45873,-5.500397 10.70774,1.386418 -10.68983,11.618929 -14.81013,20.152111 -14.01565,34.4282433 -7.60567,0.26772 -17.11026,1.9007621 -23.92709,0.3226817 z"
     id="path4306"
     inkscape:connector-curvature="0"
     sodipodi:nodetypes="csccc" />
  <path
     style="fill:#ffffff;fill-opacity:1;stroke:none;stroke-width:1.61861968;stroke-opacity:1"
     d="M 139.77004,2.0424646 C 125.11919,5.4882226 83.899929,47.313091 95.555153,84.026175 c 1.335421,4.206473 -0.0171,6.838443 5.121417,1.94741 11.80402,-11.23541 22.7943,-31.05527 59.68661,-25.23087 26.92963,4.25154 61.18644,45.298055 94.234,22.3066 -3.93251,-18.23438 -15.96961,-1.24206 -35.07537,-42.63735 -16.38316,-35.4963994 -46.42343,-30.19227 -52.91493,-37.5191004 -8.8897,-0.0862 -17.6659,0.47614 -26.83684,-0.8504 z m 37.7426,21.9806094 c 4.82636,-0.447085 12.2986,3.667441 21.05205,17.225612 -29.48677,6.822419 -31.67005,-16.242024 -21.05205,-17.225612 z"
     id="path4304"
     inkscape:connector-curvature="0"
     sodipodi:nodetypes="cssscsccscs" />
  <path
     style="fill:#ffffff;fill-opacity:1;stroke:none;stroke-width:1.61861968;stroke-opacity:1"
     d="m 195.25898,90.367528 c -23.40697,-6.557094 -84.66286,-0.466625 -43.61358,37.435212 -42.19897,-0.44972 -56.78264,-38.139642 -7.96504,-58.65396 12.93648,8.186296 52.38191,10.266987 51.57862,21.218748 z"
     id="path4300"
     inkscape:connector-curvature="0"
     sodipodi:nodetypes="cccc" />
  <path
     style="fill:#ffffff;fill-opacity:1;stroke:none;stroke-width:1.61861968;stroke-opacity:1"
     d="m 144.47727,-40.441514 c -8.12155,12.023553 -6.49211,17.000116 -13.36295,29.493636 -31.138758,15.9503726 -58.639506,50.953476 -49.417347,82.810313 6.39737,27.556153 -1.67008,16.274473 -6.39613,6.36858 -2.93718,-6.53939 -3.54229,-10.8296 -4.88442,-17.50213 -11.693949,-96.970825 50.889027,-74.576584 78.256047,-125.643051 1.74858,-5.237669 3.8534,-12.935776 4.41038,2.153179 0.44845,12.14875 -2.84797,13.795615 -8.60558,22.319473 z"
     id="path4298"
     inkscape:connector-curvature="0"
     sodipodi:nodetypes="scccccss" />
  <path
     style="color:#000000;clip-rule:nonzero;display:inline;overflow:visible;visibility:visible;opacity:1;isolation:auto;mix-blend-mode:normal;color-interpolation:sRGB;color-interpolation-filters:linearRGB;solid-color:#000000;solid-opacity:1;fill:#ffffff;fill-opacity:1;fill-rule:nonzero;stroke:none;stroke-width:1.61861968;stroke-linecap:butt;stroke-linejoin:miter;stroke-miterlimit:4;stroke-dasharray:none;stroke-dashoffset:0;stroke-opacity:1;color-rendering:auto;image-rendering:auto;shape-rendering:auto;text-rendering:auto;enable-background:accumulate"
     d="M 73.790219,248.36025 C 33.452739,234.24168 31.787177,185.5993 44.026262,148.9384 c 2.668465,-7.9931 12.354907,-25.34791 14.345809,-27.63856 23.73509,-27.308672 12.275829,-12.14052 3.536548,10.01112 -16.46078,35.82859 -16.5051,89.36857 27.26386,106.78226 13.906111,7.82498 48.730201,20.30952 45.861021,31.68414 -21.57059,-9.59587 -22.0161,-6.73616 -61.243281,-21.41711 z"
     id="path4296"
     inkscape:connector-curvature="0"
     sodipodi:nodetypes="csscccc" />
  <path
     style="fill:#ffffff;fill-opacity:1;stroke:none;stroke-width:1.61861968;stroke-opacity:1"
     d="m 128.47708,239.60282 c -28.38546,-8.46207 -59.220766,-30.07004 -60.795722,-66.22436 -0.0473,-13.10594 6.63192,-47.84089 17.19363,-66.49544 10.81256,-19.097602 6.082701,-2.61808 4.00669,5.86912 -9.156094,37.43218 -21.012747,75.54262 27.646862,112.31064 17.44358,13.18067 22.049,16.47994 11.94854,14.54004 z"
     id="path3400"
     inkscape:connector-curvature="0"
     sodipodi:nodetypes="ccsssc" />
</svg>
