<?xml version="1.0" encoding="UTF-8" standalone="no"?>
<!-- Created with Inkscape (http://www.inkscape.org/) -->
<svg id="svg4262" xmlns:rdf="http://www.w3.org/1999/02/22-rdf-syntax-ns#" xmlns="http://www.w3.org/2000/svg" height="40.67mm" width="76.575mm" version="1.1" xmlns:cc="http://creativecommons.org/ns#" xmlns:dc="http://purl.org/dc/elements/1.1/" viewBox="0 0 271.32781 144.10705">
 <metadata id="metadata4267">
  <rdf:RDF>
   <cc:Work rdf:about="">
    <dc:format>image/svg+xml</dc:format>
    <dc:type rdf:resource="http://purl.org/dc/dcmitype/StillImage"/>
    <dc:title/>
   </cc:Work>
  </rdf:RDF>
 </metadata>
 <g id="layer1" transform="translate(-127.99 -472.2)" stroke="#fff" fill="#fff">
  <path id="path4344" d="m398.3 523.34c-5.7803 5.4621-2.8856 25.267-9.8899 23.83-0.62827-8.9278 3.4297-23.663 10.47-26.421 0.4168 0.86466 0.16397 2.1043-0.58006 2.5907z" stroke-width=".45868"/>
  <path id="path4338" d="m350.77 536.28c3.4957 6.0593 6.3652 22.915 4.8952 31.218-0.59605 3.3666-0.0582 9.7344 1.256 11.122 4.5665-14.716 4.3893 0.2087 13.543 0.0667-0.92872-4.8512-8.7462-4.1898-2.1427-14.824 8.0297-12.931-9.8182 1.9034-10.035-8.4836-0.17694-8.4862-2.3824-17.232-7.5169-19.098zm13.985 24.414c3.6419 1.4119-0.0934 2.9273-1.0404 5.1167-4.6097 10.066-9.6291-6.931 1.0404-5.1167z" stroke-width=".41823"/>
  <path id="path4336" d="m350.06 576.19c-6.1291 8.5646-21.636-4.4823-11.617-7.0769-3.5885 12.606 16.465 5.8344 5.137-1.4516-9.8072-6.3079-1.7806-8.7152-0.64874-8.5783 8.4544 1.0227 1.9808 2.8009-1.1059 4.0437 8.7331 2.993 12.645 6.7578 8.2347 13.063z" stroke-width=".44919"/>
  <path id="path4330" d="m325.85 578.9c-3.5342-2.6228-8.6613-14.714-8.8914-21.857 3.7016 1.2109 8.4761 16.483 11.106 15.597 1.1104-0.37389 1.0972-5.8282 7.7977-11.328 0.9216 3.5543-7.1808 17.567-10.012 17.588z" stroke-width=".45868"/>
  <path id="path4328" d="m306.66 559.14c-0.3752 0.003-0.76835-0.03-1.1251 0.0991-15.279 5.53 2.1199 31.642 9.7502 13.53 2.511-6.9735-2.9972-13.668-8.6252-13.629zm1.7895 4.4019c1.066 0.006 3.564 0.28351 5.1233 2.497 1.221 1.7333 1.2169 4.4911 0.20484 6.2204-6.8325 11.674-16.917-10.516-5.3281-8.7174z" stroke-width=".50840"/>
  <path id="path4324" d="m296.46 575.54c-1.7842 13.097-8.2217 24.847-9.0299 17.036 3.8504-2.3248 10.667-23.754 1.3517-27.711-8.9902-2.7448-3.0435 16.585-8.9459 13.531 2.9024-6.9464-5.0976-26.946 2.8506-16.09 7.0519-8.8562 15.358 1.6016 13.774 13.234z" stroke-width=".45868"/>
  <path id="path4322" d="m260.65 562.47c-6.8407 10.574 9.0464 23.63 16.138 11.311 0.91834-8.1958-5.8908 5.4384-9.0438 3.2869-8.0143-5.4686-1.0102-7.7622 1.7102-8.3738 14.201-3.1923-2.4114-15.832-8.804-6.2237zm11.324 1.7928c-2.4887 2.0972-10.493 7.8123-9.077 0.26189 0.45266-2.4131 7.5889-3.8797 9.077-0.26189z" stroke-width=".43209"/>
  <path id="path4318" d="m256.01 574.6c0.34781 5.6406-5.2935 5.4478-4.0443 0.33651 1.3921-5.6959 1.3921-26.696-6.3431-39.632 6.0886 3.9178 7.7352 6.9366 8.0541 15.258 0.22225 5.7986 1.9757 18.24 2.3332 24.038z" stroke-width=".41823"/>
  <path id="path4316" d="m238.77 558.95c-13.95 1.0271-12.861 27.116 0.73277 17.453 3.7184-3.4108 1.7315-0.25384 5.1565 2.4495 7.5464 0.14685 0.50061-4.7754 0.29612-7.3502-0.83581-10.524-1.2122-12.646-6.1854-12.553zm-0.22795 3.24c4.5106 0.79065 3.7806 11.804-2.643 13.117-6.6304 1.3557-5.3989-14.527 2.643-13.117z" stroke-width=".43503"/>
  <path id="path4310" d="m219.56 578.9c0.68766-8.2207 1.1903-22.221-0.89235-25.561-1.2668 2.9956-3.8013 6.4012-4.6739 12.492-2.1274-4.0908-3.1414-12.263-9.867-19.174 2.7397 16.084 0.5849 32.673-10.31 33.212 17.85-23.506 1.0497-41.129-7.9743-49.036 16.141 5.5546 22.024 9.9075 27.591 23.619 3.4333-5.7112 5.4333-11.711 4.3703-18.069 3.063 2.358 4.0638 13.186 4.5488 16.667 0.51422 3.6913 1.3911 15.253 1.439 18.536 0.0752 5.1553-2.6646 7.2066-4.2311 7.3153z" stroke-width=".41823"/>
  <path id="path4304-3-9-0" d="m164.49 493.39c-5.1607 2.8937-16.324 14.539-12.989 25.352 3.9709-5.4297 10.119-9.0756 18.885-8.2869 8.7663 0.78874 18.175 13.455 27.991 6.6259-1.1681-5.4163-12.275-7.6221-13.939-13.572-1.8661-6.6732-9.7282-9.2315-12.143-10.147-1.5341-0.58133-6.203-0.87052-7.8051 0.0278zm7.5402 5.5605c1.0269-0.0951 3.7971 1.9094 5.6596 4.7941-6.2739 1.4516-7.9188-4.5849-5.6596-4.7941z" stroke-width=".48079"/>
  <path id="path4312-6" d="m190.9 601.16c-19.602-0.27423-48.2 11.18-60.331-5.0052-6.883-9.5106 0.24339-24.429 31.343-18.09-28.097 0.88733-25.203 12.114-14.744 14.473 18.45 3.2714 39.82-12.172 52.809-8.4269 9.4623 3.2206 13.775 10.563 12.449 31.721-11.684-13.931-6.8573-14.274-21.526-14.672z" stroke-width=".37492"/>
  <path id="path4308-2" d="m167.32 584.71c9.6805-4.4139 17.213-9.461 20.053-20.468 2.4846-19.362-13.997-31.288-17.182-33.435-3.8171-2.5716-1.816-4.1344 2.7986-1.6775 12.035 6.4076 23.339 17.743 22.704 32.305-1.6924 18.861-19.356 24.637-28.373 23.275z" stroke-width=".41823"/>
  <path id="path4306-6" d="m165.42 490.78c0.62249-1.5517 2.0497-5.8009 11.815-10.236-2.6942 3.8584-4.5662 5.5577-4.3775 10.874-2.7503-1.0074-5.385-1.1269-7.4376-0.63754z" stroke-width=".48079"/>
  <path id="path4300-1" d="m184.06 521.19c-7.5676-4.2146-28.783-1.3268-19.431 8.9974-9.9449 5.2391-17.575-10.815-0.69441-16.052 2.7799-0.86245 1.5783 0.0288 5.7706 1.4148 3.007 0.99413 15.456 2.8641 14.355 5.6397z" stroke-width=".48079"/>
  <path id="path4296-8" d="m144.18 565.69c-8.9576-4.5341-12.559-18.273-0.0856-35.673-4.2309 11.649-4.3343 23.797 5.3995 31.234 5.2968 4.0472 14.85 5.0524 15.314 13.451-5.0893-4.9612-15.464-6.3987-20.628-9.0126z" stroke-width=".41823"/>
  <path id="path3400-7" d="m150.22 525.45c-3.8505 20.852-1.8894 27.968 11.083 38.226-24.972-7.258-16.576-30.48-11.083-38.226z" stroke-width=".41823"/>
  <path id="path4298-6-9" d="m161.95 490.82c-12.998 10.466-15.533 17.486-14.172 29.155-6.4356-11.676-3.4558-22.146 4.6655-30.067 7.9528-7.5767 9.8988-4.6091 15.413-17.617 0.39354 7.126-1.3014 13.023-5.9061 18.529z" stroke-width=".48079"/>
  <path id="path4316-6" d="m382.97 558.97c-13.95 1.0271-13.922 27.558-0.3279 17.895 3.7184-3.4108 3.3225 0.0113 6.7475 2.7147 2.113 0.0411 3.0404-0.37061 3.276-1.0413 0.60579-1.7248-3.3629-5.1621-3.5102-7.016-0.83583-10.524-1.2122-12.646-6.1854-12.553zm0.47915 4.6542c4.5106 0.79065 3.0735 10.39-3.3501 11.703-6.6304 1.3557-4.6917-13.113 3.3501-11.703z" stroke-width=".43503"/>
 </g>
</svg>
