<?xml version="1.0" encoding="UTF-8" standalone="no"?>
<!-- Created with Inkscape (http://www.inkscape.org/) -->
<svg id="svg4262" xmlns:rdf="http://www.w3.org/1999/02/22-rdf-syntax-ns#" xmlns="http://www.w3.org/2000/svg" height="40.67mm" width="23.951mm" version="1.1" xmlns:cc="http://creativecommons.org/ns#" xmlns:dc="http://purl.org/dc/elements/1.1/" viewBox="0 0 84.865404 144.10705">
 <metadata id="metadata4267">
  <rdf:RDF>
   <cc:Work rdf:about="">
    <dc:format>image/svg+xml</dc:format>
    <dc:type rdf:resource="http://purl.org/dc/dcmitype/StillImage"/>
    <dc:title/>
   </cc:Work>
  </rdf:RDF>
 </metadata>
 <g id="layer1" transform="translate(-127.99 -472.2)" stroke="#fff" fill="#fff">
  <path id="path4304-3-9-0" d="m164.49 493.39c-5.1607 2.8937-16.324 14.539-12.989 25.352 3.9709-5.4297 10.119-9.0756 18.885-8.2869 8.7663 0.78874 18.175 13.455 27.991 6.6259-1.1681-5.4163-12.275-7.6221-13.939-13.572-1.8661-6.6732-9.7282-9.2315-12.143-10.147-1.5341-0.58133-6.203-0.87052-7.8051 0.0278zm7.5402 5.5605c1.0269-0.0951 3.7971 1.9094 5.6596 4.7941-6.2739 1.4516-7.9188-4.5849-5.6596-4.7941z" stroke-width=".48079"/>
  <path id="path4312-6" d="m190.9 601.16c-19.602-0.27423-48.2 11.18-60.331-5.0052-6.883-9.5106 0.24339-24.429 31.343-18.09-28.097 0.88733-25.203 12.114-14.744 14.473 18.45 3.2714 39.82-12.172 52.809-8.4269 9.4623 3.2206 13.775 10.563 12.449 31.721-11.684-13.931-6.8573-14.274-21.526-14.672z" stroke-width=".37492"/>
  <path id="path4308-2" d="m167.32 584.71c9.6805-4.4139 17.213-9.461 20.053-20.468 2.4846-19.362-13.997-31.288-17.182-33.435-3.8171-2.5716-1.816-4.1344 2.7986-1.6775 12.035 6.4076 23.339 17.743 22.704 32.305-1.6924 18.861-19.356 24.637-28.373 23.275z" stroke-width=".41823"/>
  <path id="path4306-6" d="m165.42 490.78c0.62249-1.5517 2.0497-5.8009 11.815-10.236-2.6942 3.8584-4.5662 5.5577-4.3775 10.874-2.7503-1.0074-5.385-1.1269-7.4376-0.63754z" stroke-width=".48079"/>
  <path id="path4300-1" d="m184.06 521.19c-7.5676-4.2146-28.783-1.3268-19.431 8.9974-9.9449 5.2391-17.575-10.815-0.69441-16.052 2.7799-0.86245 1.5783 0.0288 5.7706 1.4148 3.007 0.99413 15.456 2.8641 14.355 5.6397z" stroke-width=".48079"/>
  <path id="path4296-8" d="m144.18 565.69c-8.9576-4.5341-12.559-18.273-0.0856-35.673-4.2309 11.649-4.3343 23.797 5.3995 31.234 5.2968 4.0472 14.85 5.0524 15.314 13.451-5.0893-4.9612-15.464-6.3987-20.628-9.0126z" stroke-width=".41823"/>
  <path id="path3400-7" d="m150.22 525.45c-3.8505 20.852-1.8894 27.968 11.083 38.226-24.972-7.258-16.576-30.48-11.083-38.226z" stroke-width=".41823"/>
  <path id="path4298-6-9" d="m161.95 490.82c-12.998 10.466-15.533 17.486-14.172 29.155-6.4356-11.676-3.4558-22.146 4.6655-30.067 7.9528-7.5767 9.8988-4.6091 15.413-17.617 0.39354 7.126-1.3014 13.023-5.9061 18.529z" stroke-width=".48079"/>
 </g>
</svg>
